<svg id="レイヤー_1" data-name="レイヤー 1" xmlns="http://www.w3.org/2000/svg" viewBox="0 0 350.64 237"><defs><style>.cls-1{fill:#88bede;}.cls-2,.cls-4,.cls-5,.cls-6{fill:none;stroke-linecap:round;}.cls-2,.cls-6{stroke:#fff;}.cls-2,.cls-4,.cls-5{stroke-width:2px;}.cls-3{fill:#d4145a;}.cls-4,.cls-5{stroke:#88bede;}.cls-5{stroke-linejoin:round;}.cls-7{fill:#332d2b;}</style></defs><title>logo</title><path class="cls-1" d="M318.16,235.57c-.56-2.49-3.79-16.35-5.06-16.35-1.48,0-6.8,6.63-7.58,7.61a23.29,23.29,0,0,0-8.38,0c-.77-.93-6.1-7.61-7.58-7.61-1.32,0-4.55,14.12-5.08,16.42a10.25,10.25,0,0,0-.85,4.08c0,7.34,7.94,13.28,17.7,13.28s17.7-5.94,17.7-13.28A10.4,10.4,0,0,0,318.16,235.57Z" transform="translate(-13.5 -16)"/><path class="cls-2" d="M295.38,244.61s1.18,1.92,2.86,2.06a2.79,2.79,0,0,0,2.87-2.65" transform="translate(-13.5 -16)"/><path class="cls-2" d="M306.92,244.61s-1.18,1.92-2.87,2.06a2.79,2.79,0,0,1-2.86-2.65" transform="translate(-13.5 -16)"/><path id="nose" class="cls-3" d="M301.11,243.87c-1.07-.64-4.61-3-3.6-5.2s3.6,0,3.6,0,2.58-2.21,3.58,0S302.16,243.23,301.11,243.87Z" transform="translate(-13.5 -16)"/><path class="cls-4" d="M294.54,240.6s-11.5-1.78-14.64.68" transform="translate(-13.5 -16)"/><path class="cls-4" d="M294.54,242.71s-11.63.3-14.26,3.27" transform="translate(-13.5 -16)"/><path class="cls-5" d="M307,240.38s11.41-1.76,14.5.67" transform="translate(-13.5 -16)"/><path class="cls-5" d="M307,242.47s11.54.3,14.15,3.24" transform="translate(-13.5 -16)"/><path id="nose-2" data-name="nose" class="cls-3" d="M353,222.8c-3.15-1.9-13.65-8.87-10.66-15.42s10.66,0,10.66,0,7.66-6.55,10.64,0S356.1,220.9,353,222.8Z" transform="translate(-13.5 -16)"/><path class="cls-2" d="M320,198.38s11.41-1.76,14.5.67" transform="translate(-13.5 -16)"/><path class="cls-2" d="M320,200.47s11.54.3,14.15,3.24" transform="translate(-13.5 -16)"/><path class="cls-2" d="M307.54,198.6s-11.5-1.78-14.64.68" transform="translate(-13.5 -16)"/><path class="cls-2" d="M307.54,200.71s-11.63.3-14.26,3.27" transform="translate(-13.5 -16)"/><path class="cls-2" d="M307.38,203.61s1.18,1.92,2.86,2.06a2.79,2.79,0,0,0,2.87-2.65" transform="translate(-13.5 -16)"/><path class="cls-2" d="M318.92,203.61s-1.18,1.92-2.87,2.06a2.79,2.79,0,0,1-2.86-2.65" transform="translate(-13.5 -16)"/><path id="nose-3" data-name="nose" class="cls-3" d="M313.11,202.87c-1.07-.64-4.61-3-3.6-5.2s3.6,0,3.6,0,2.58-2.21,3.58,0S314.16,202.23,313.11,202.87Z" transform="translate(-13.5 -16)"/><path class="cls-6" d="M320.82,232s2.12,3.44,5.12,3.69a5,5,0,0,0,5.15-4.76" transform="translate(-13.5 -16)"/><path class="cls-6" d="M341.5,232s-2.12,3.44-5.14,3.69a5,5,0,0,1-5.12-4.76" transform="translate(-13.5 -16)"/><path id="nose-4" data-name="nose" class="cls-3" d="M331.09,230.65c-1.91-1.15-8.25-5.35-6.45-9.31s6.45,0,6.45,0,4.62-4,6.42,0S333,229.5,331.09,230.65Z" transform="translate(-13.5 -16)"/><path class="cls-7" d="M77.6,18.38V32.89H54.5V61.37H80.31v15H13.5v-15H38.91V32.89H15.63V18.38Z" transform="translate(-13.5 -16)"/><path class="cls-7" d="M152.46,16V48.59L105.14,80.65,95.43,67.18l40.21-26.42V30.87H89.55V16Z" transform="translate(-13.5 -16)"/><path class="cls-7" d="M181.37,17.19V51.55H165.2V17.19Zm42.52,0V59.31l-19.78,20.4H174.55V64.33h20.79l12.2-13.14v-34Z" transform="translate(-13.5 -16)"/><path class="cls-7" d="M299.37,18.38V32.89h-23.1V61.37h25.8v15H235.26v-15h25.41V32.89H237.39V18.38Z" transform="translate(-13.5 -16)"/><path class="cls-7" d="M41.42,127.91,30,137.05H75.6V153.4h-49l-11.37-10v-12.2l16.53-13.79ZM72.21,91.6v15.16H17.42V91.6Z" transform="translate(-13.5 -16)"/><path class="cls-7" d="M138.44,108.13l10.72,7.29v21.91L131,153.47H95.74V137.69h29.13l8.23-7.36v-7.69H87V108.13Zm2.89-18.3v14H95.56v-14Z" transform="translate(-13.5 -16)"/><path class="cls-7" d="M173.92,89.65V152H160V89.65Zm42.7-.36v13.39h-2.77v3.61h9.7v14.15h-9.7v5.92l11.83,7.54-5,15.06-5.81-4.19-4.19,8.63H189.19l-9.89-7.3V131.81l7.58-8.16h12.27v-3.21H178.91V106.29h20.24v-3.61H178.91V89.29Zm-17.47,47.14h-5.73v4.15h5.73Zm29.1-46.49L223.19,95l-5.09-5.09,5.09-5.09Zm0,10.25-5.06,5.09-5.09-5.09,5.09-5.09Z" transform="translate(-13.5 -16)"/><path class="cls-7" d="M286.29,108.13,297,115.42v21.91l-18.12,16.14h-35.3V137.69h29.12l8.23-7.36v-7.69H234.82V108.13Zm2.88-18.3v14H243.41v-14Z" transform="translate(-13.5 -16)"/><path class="cls-7" d="M299.37,18.38V32.89h-23.1V61.37h25.8v15H235.26v-15h25.41V32.89H237.39V18.38Z" transform="translate(-13.5 -16)"/></svg>