<?xml version="1.0" encoding="utf-8"?>
<!-- Generator: Adobe Illustrator 23.0.1, SVG Export Plug-In . SVG Version: 6.00 Build 0)  -->
<svg version="1.1" id="レイヤー_1" xmlns="http://www.w3.org/2000/svg" xmlns:xlink="http://www.w3.org/1999/xlink" x="0px"
	 y="0px" viewBox="0 0 107.1 46.5" style="enable-background:new 0 0 107.1 46.5;" xml:space="preserve">
<style type="text/css">
	.st0{fill:#88BEDE;}
	.st1{fill:none;stroke:#FFFFFF;stroke-width:2;stroke-linecap:round;}
	.st2{fill:#D4145A;}
	.st3{fill:none;stroke:#88BEDE;stroke-width:2;stroke-linecap:round;}
	.st4{fill:none;stroke:#88BEDE;stroke-width:2;stroke-linecap:round;stroke-linejoin:round;}
	.st5{fill:#332D2B;}
	.st6{font-family:'NIS-Z10-83pv-RKSJ-H';}
	.st7{font-size:12px;}
</style>
<title>logo</title>
<g>
	<g id="レイヤー_1-2">
		<path class="st0" d="M99.6,23.7C99,21,95.6,6.1,94.2,6.1c-1.6,0-7.3,7.1-8.1,8.2c-1.5-0.3-3-0.4-4.5-0.4c-1.5,0-3,0.1-4.5,0.4
			c-0.8-1-6.5-8.2-8.1-8.2c-1.4,0-4.9,15.2-5.4,17.6c-0.6,1.4-0.9,2.9-0.9,4.4c0,7.9,8.5,14.3,19,14.3s19-6.4,19-14.3
			C100.6,26.6,100.3,25.1,99.6,23.7z"/>
		<path class="st1" d="M75.2,33.4c0,0,1.3,2.1,3.1,2.2c1.6,0,3-1.2,3.1-2.8"/>
		<path class="st1" d="M87.6,33.4c0,0-1.3,2.1-3.1,2.2c-1.6,0-3-1.2-3.1-2.8"/>
		<path class="st2" d="M81.3,32.6c-1.1-0.7-4.9-3.2-3.9-5.6c1.1-2.4,3.9,0,3.9,0s2.8-2.4,3.8,0S82.5,31.9,81.3,32.6z"/>
		<path class="st3" d="M74.3,29.1c0,0-12.3-1.9-15.7,0.7"/>
		<path class="st3" d="M74.3,31.3c0,0-12.5,0.3-15.3,3.5"/>
		<path class="st4" d="M87.7,28.8c0,0,12.2-1.9,15.6,0.7"/>
		<path class="st4" d="M87.7,31.1c0,0,12.4,0.3,15.2,3.5"/>
		<text transform="matrix(1 0 0 1 7.25 21.3605)"><tspan x="0" y="0" class="st5 st6 st7">エフリエ</tspan><tspan x="0" y="14.4" class="st5 st6 st7">こうぼう</tspan></text>
	</g>
</g>
</svg>
