<svg id="logo" xmlns="http://www.w3.org/2000/svg" viewBox="0 0 103.27 36.26"><defs><style>.cls-1{fill:#88bede;}.cls-2,.cls-4,.cls-5{fill:none;stroke-linecap:round;stroke-width:2px;}.cls-2{stroke:#fff;}.cls-3{fill:#d4145a;}.cls-4,.cls-5{stroke:#88bede;}.cls-5{stroke-linejoin:round;}.cls-6{fill:#332d2b;}</style></defs><title>logo2</title><g id="logo_g"><g id="レイヤー_1-2" data-name="レイヤー 1-2"><path class="cls-1" d="M101.44,22.66C100.84,20,97.38,5.11,96,5.11c-1.59,0-7.3,7.12-8.13,8.17a24.9,24.9,0,0,0-9,0c-.82-1-6.54-8.17-8.13-8.17-1.42,0-4.89,15.16-5.45,17.63a11.17,11.17,0,0,0-.92,4.38c0,7.87,8.53,14.25,19,14.25s19-6.38,19-14.25A11,11,0,0,0,101.44,22.66Z" transform="translate(-2.76 -5.11)"/><path class="cls-2" d="M77,32.37s1.27,2.06,3.07,2.21a3,3,0,0,0,3.08-2.85" transform="translate(-2.76 -5.11)"/><path class="cls-2" d="M89.38,32.37s-1.27,2.06-3.08,2.21a3,3,0,0,1-3.07-2.85" transform="translate(-2.76 -5.11)"/><path id="nose" class="cls-3" d="M83.14,31.57C82,30.88,78.2,28.36,79.28,26s3.86,0,3.86,0,2.77-2.37,3.85,0S84.27,30.88,83.14,31.57Z" transform="translate(-2.76 -5.11)"/><path class="cls-4" d="M76.09,28.06s-12.34-1.91-15.71.73" transform="translate(-2.76 -5.11)"/><path class="cls-4" d="M76.09,30.33s-12.48.32-15.3,3.51" transform="translate(-2.76 -5.11)"/><path class="cls-5" d="M89.47,27.82s12.24-1.89,15.56.72" transform="translate(-2.76 -5.11)"/><path class="cls-5" d="M89.47,30.07s12.38.32,15.18,3.48" transform="translate(-2.76 -5.11)"/><path class="cls-6" d="M14.9,9.79v2.75H10.53v5.39h4.88v2.85H2.76V17.93H7.57V12.54H3.16V9.79Z" transform="translate(-2.76 -5.11)"/><path class="cls-6" d="M29.08,9.34v6.17l-9,6.07L18.28,19l7.61-5V12.16H17.16V9.34Z" transform="translate(-2.76 -5.11)"/><path class="cls-6" d="M34.55,9.57v6.51H31.49V9.57Zm8.06,0v8l-3.75,3.87h-5.6V18.5H37.2L39.51,16V9.57Z" transform="translate(-2.76 -5.11)"/><path class="cls-6" d="M56.9,9.79v2.75H52.53v5.39h4.88v2.85H44.76V17.93h4.81V12.54H45.16V9.79Z" transform="translate(-2.76 -5.11)"/><path class="cls-6" d="M8.43,33.57,6.26,35.3H14.9v3.09H5.61l-2.15-1.9V34.18l3.13-2.61Zm5.83-6.88v2.87H3.88V26.69Z" transform="translate(-2.76 -5.11)"/><path class="cls-6" d="M26.8,29.82l2,1.38v4.15L25.4,38.41H18.72v-3h5.51L25.79,34V32.57H17.05V29.82Zm.55-3.46V29H18.68V26.36Z" transform="translate(-2.76 -5.11)"/><path class="cls-6" d="M33.52,26.32V38.13H30.88V26.32Zm8.09-.07v2.54h-.53v.68h1.84v2.68H41.08v1.12l2.25,1.43-.95,2.85-1.1-.79-.79,1.63H36.41L34.54,37v-2.7L36,32.76H38.3v-.61H34.47V29.47H38.3v-.68H34.47V26.25ZM38.3,35.18H37.21V36H38.3Zm5.51-8.8-1,1-1-1,1-1Zm0,1.94-1,1-1-1,1-1Z" transform="translate(-2.76 -5.11)"/><path class="cls-6" d="M54.8,29.82l2,1.38v4.15L53.4,38.41H46.72v-3h5.51L53.79,34V32.57H45.05V29.82Zm.55-3.46V29H46.68V26.36Z" transform="translate(-2.76 -5.11)"/></g></g></svg>