<svg id="レイヤー_1" data-name="レイヤー 1" xmlns="http://www.w3.org/2000/svg" viewBox="0 0 292 139.1"><defs><style>.cls-1{fill:#fff;}.cls-2{fill:#332d2b;}</style></defs><title>logo_title</title><path class="cls-1" d="M68,132.23c-.35-1.54-2.34-10.1-3.13-10.1s-4.2,4.1-4.68,4.7a14.94,14.94,0,0,0-2.59-.23,15.11,15.11,0,0,0-2.59.23c-.47-.57-3.76-4.7-4.68-4.7s-2.81,8.73-3.13,10.15a6.22,6.22,0,0,0-.53,2.52c0,4.53,4.91,8.2,10.93,8.2s10.94-3.67,10.94-8.2A6.3,6.3,0,0,0,68,132.23Z" transform="translate(-13.5 -19.37)"/><path class="cls-2" d="M78.36,21.78V36.46H55V65.28H81.1V80.47H13.5V65.28H39.21V36.46H15.65V21.78Z" transform="translate(-13.5 -19.37)"/><path class="cls-2" d="M154.11,19.37v33L106.23,84.78,96.41,71.16l40.68-26.74v-10H90.45v-15Z" transform="translate(-13.5 -19.37)"/><path class="cls-2" d="M183.37,20.57V55.34H167V20.57Zm43,0V63.2l-20,20.63H176.46V68.27h21L209.85,55V20.57Z" transform="translate(-13.5 -19.37)"/><path class="cls-2" d="M302.76,21.78V36.46H279.39V65.28H305.5V80.47H237.9V65.28h25.71V36.46H240.05V21.78Z" transform="translate(-13.5 -19.37)"/><path class="cls-2" d="M41.75,132.61l-11.57,9.24H76.34V158.4H26.71L15.2,148.24V135.9l16.73-14ZM72.91,95.87v15.34H17.47V95.87Z" transform="translate(-13.5 -19.37)"/><path class="cls-2" d="M139.93,112.6,150.77,120v22.17l-18.33,16.33H96.72v-16h29.47l8.33-7.45v-7.78H87.85V112.6Zm2.92-18.52v14.13H96.54V94.08Z" transform="translate(-13.5 -19.37)"/><path class="cls-2" d="M175.83,93.9V157h-14.1V93.9ZM219,93.53v13.55h-2.82v3.65h9.83v14.32h-9.83v6l12,7.63-5,15.23-5.88-4.23-4.23,8.73H191.28l-10-7.38V136.55l7.67-8.25h12.42v-3.25H180.87V110.73h20.49v-3.65H180.87V93.53Zm-17.68,47.7h-5.81v4.2h5.81Zm29.44-47-5.12,5.15-5.15-5.15L225.68,89Zm0,10.37-5.12,5.15-5.15-5.15,5.15-5.15Z" transform="translate(-13.5 -19.37)"/><path class="cls-2" d="M289.52,112.6,300.37,120v22.17L282,158.47H246.32v-16h29.47l8.33-7.45v-7.78H237.44V112.6Zm2.93-18.52v14.13H246.14V94.08Z" transform="translate(-13.5 -19.37)"/></svg>